<mxfile host="app.diagrams.net" modified="2024-05-20T05:18:21.033Z" agent="Mozilla/5.0 (Windows NT 10.0; Win64; x64) AppleWebKit/537.36 (KHTML, like Gecko) Chrome/125.0.0.0 Safari/537.36" version="24.4.4" etag="Q1MvXSM8nD6SujyAaMMW" type="github">
  <diagram name="Page-1" id="4nYpIkfMa072ySrNgDzj">
    <mxGraphModel>
      <root>
        <mxCell id="0" />
        <mxCell id="1" parent="0" />
      </root>
    </mxGraphModel>
  </diagram>
</mxfile>
